<svg width="103" height="63" viewBox="0 0 103 63" fill="none" xmlns="http://www.w3.org/2000/svg">
<circle cx="29.5" cy="33.5" r="23.15" stroke="#6B0000" stroke-width="0.7"/>
<circle cx="29.5" cy="33.5" r="29" stroke="#6B0000"/>
<path d="M44.5671 31.5625C46.1516 29.7464 47.6957 27.7228 52.053 26.8741C56.4103 26.0255 59.5064 28.6528 66.3535 27.3192C71.8312 26.2524 74.0415 23.6683 74.4619 22.5096" stroke="#6B0000" stroke-width="1.3" stroke-linecap="round"/>
<path d="M45.8523 38.3086C47.4368 36.4925 48.9809 34.4689 53.3382 33.6202C57.6955 32.7715 60.7915 35.3989 67.6387 34.0653C73.1164 32.9984 75.3266 30.4144 75.747 29.2557" stroke="#6B0000" stroke-width="1.3" stroke-linecap="round"/>
<path d="M45.8523 44.6504C47.4368 42.8343 48.9809 40.8107 53.3382 39.962C57.6955 39.1133 60.7915 41.7407 67.6387 40.4071C73.1164 39.3402 75.3266 36.7562 75.747 35.5975" stroke="#6B0000" stroke-width="1.3" stroke-linecap="round"/>
<rect x="55.3264" y="0.232961" width="47.4356" height="11.54" rx="1.8" transform="rotate(10.4511 55.3264 0.232961)" stroke="#6B0000" stroke-width="0.4"/>
<path d="M57.5495 8.29681L59.4939 4.20984L60.207 4.34655L60.4959 8.86174L59.9596 8.75892L59.896 7.56151L58.5937 7.31181L58.0917 8.40075L57.5495 8.29681ZM58.7856 6.88431L59.8699 7.0922L59.7941 5.70308C59.7795 5.43961 59.7707 5.22002 59.7677 5.04432C59.7647 4.86862 59.7642 4.75448 59.7662 4.7019C59.7485 4.75147 59.7058 4.85732 59.6381 5.01946C59.5703 5.18161 59.4813 5.3804 59.371 5.61584L58.7856 6.88431ZM61.4069 9.03642L61.4996 8.55323L62.3776 8.72158L63.0171 5.38633L62.1391 5.21798L62.2317 4.73478L64.5299 5.17543L64.4372 5.65863L63.5592 5.49028L62.9197 8.82552L63.7977 8.99387L63.7051 9.47707L61.4069 9.03642ZM68.1494 10.3292L70.0938 6.24227L70.8068 6.37898L71.0957 10.8942L70.5595 10.7913L70.4959 9.59394L69.1936 9.34424L68.6915 10.4332L68.1494 10.3292ZM69.3855 8.91673L70.4698 9.12463L70.394 7.73551C70.3793 7.47203 70.3705 7.25245 70.3676 7.07675C70.3646 6.90104 70.3641 6.7869 70.366 6.73433C70.3484 6.78389 70.3057 6.88975 70.2379 7.05189C70.1702 7.21403 70.0812 7.41282 69.9709 7.64826L69.3855 8.91673ZM71.9184 11.0519L72.7432 6.75026L73.4503 6.88584L74.0582 10.8207C74.0692 10.721 74.0824 10.5993 74.0977 10.4556C74.1177 10.3088 74.1388 10.156 74.1611 9.99736C74.1881 9.83554 74.2151 9.68392 74.2422 9.54249L74.7055 7.12651L75.2181 7.2248L74.3933 11.5264L73.6862 11.3909L73.0842 7.45712C73.074 7.55291 73.0589 7.67423 73.0389 7.82109C73.0196 7.96402 72.9965 8.1164 72.9695 8.27822C72.9473 8.43686 72.9222 8.58886 72.8943 8.73421L72.4311 11.1502L71.9184 11.0519ZM75.216 11.6842L77.1604 7.59722L77.8734 7.73393L78.1623 12.2491L77.6261 12.1463L77.5624 10.9489L76.2602 10.6992L75.7581 11.7881L75.216 11.6842ZM76.4521 10.2717L77.5364 10.4796L77.4606 9.09046C77.4459 8.82699 77.4371 8.6074 77.4342 8.4317C77.4312 8.25599 77.4307 8.14185 77.4326 8.08928C77.415 8.13884 77.3723 8.2447 77.3045 8.40684C77.2368 8.56898 77.1477 8.76777 77.0374 9.00321L76.4521 10.2717ZM79.1323 12.4351L79.9571 8.13346L80.4875 8.23515L79.7553 12.0536L81.6999 12.4264L81.6072 12.9096L79.1323 12.4351ZM83.4906 13.2708L83.799 11.6621L83.019 8.72054L83.567 8.82562L84.0825 10.7572C84.1108 10.8645 84.1319 10.9561 84.1459 11.0321C84.1606 11.1042 84.1688 11.1567 84.1707 11.1896C84.1845 11.1597 84.2116 11.1139 84.2519 11.0524C84.2969 10.9878 84.3524 10.9108 84.4184 10.8217L85.5941 9.21429L86.1421 9.31937L84.3294 11.7637L84.0209 13.3724L83.4906 13.2708ZM86.0221 13.7562L86.1238 13.2258L88.693 10.3094L86.7837 9.94336L86.8764 9.46016L89.3218 9.92905L89.2201 10.4594L86.651 13.3758L88.6486 13.7588L88.556 14.242L86.0221 13.7562ZM89.6438 14.4506L90.4686 10.1489L92.9435 10.6235L92.8509 11.1067L90.9004 10.7327L90.6451 12.0644L92.3893 12.3989L92.2978 12.8762L90.5535 12.5417L90.2609 14.0679L92.2114 14.4419L92.1187 14.9251L89.6438 14.4506ZM93.13 15.119L93.9548 10.8174L95.0685 11.0309C95.3474 11.0844 95.5769 11.1834 95.7569 11.3279C95.9408 11.4731 96.0693 11.6525 96.1424 11.8661C96.2194 12.0804 96.2327 12.3192 96.1822 12.5824L95.8534 14.2972C95.803 14.5604 95.7019 14.7793 95.5504 14.9538C95.4035 15.1252 95.2177 15.2444 94.9931 15.3113C94.7724 15.3789 94.5226 15.386 94.2437 15.3326L93.13 15.119ZM93.7507 14.7493L94.3341 14.8611C94.5933 14.9109 94.8096 14.877 94.9828 14.7595C95.16 14.6428 95.2734 14.4548 95.3231 14.1955L95.6519 12.4807C95.7009 12.2254 95.6646 12.0107 95.5432 11.8367C95.4257 11.6635 95.2374 11.552 94.9781 11.5023L94.3947 11.3905L93.7507 14.7493Z" fill="#6B0000"/>
<g clip-path="url(#clip0_74_80)">
<path d="M21.4661 44.625L22.6063 45.7946C22.7209 45.912 22.8632 45.9989 23.02 46.0472C23.1769 46.0955 23.3433 46.1038 23.5042 46.0711C23.665 46.0385 23.8151 45.9661 23.9408 45.8605C24.0664 45.7549 24.1636 45.6195 24.2233 45.4666L27.712 36.5415L31.9523 40.7018L31.5853 44.0847C31.5019 44.7428 31.5662 45.1402 32.1531 45.7421L32.9207 46.5294C33.0382 46.658 33.185 46.7563 33.3486 46.8161C33.5122 46.8759 33.6878 46.8953 33.8605 46.8728C34.1035 46.8399 34.4427 46.7097 34.686 46.2771L36.9564 42.3651C36.9732 42.3358 36.9888 42.3052 37.0031 42.2742C37.0049 42.2716 37.0071 42.2694 37.0097 42.2677C37.0413 42.2545 37.0722 42.2396 37.1022 42.2229L41.0912 40.0341C41.5176 39.8026 41.6507 39.4715 41.6871 39.2337C41.7116 39.074 41.6983 38.9108 41.6483 38.7572C41.5982 38.6036 41.5128 38.4638 41.3989 38.3492L40.5885 37.518C40.1503 37.0685 39.5233 36.8289 38.9476 36.8897L35.6194 37.172L31.5141 32.8346L40.513 29.5833C40.6673 29.5276 40.8052 29.434 40.9141 29.3112C41.0229 29.1884 41.0992 29.0402 41.136 28.8803C41.1728 28.7204 41.169 28.5538 41.1248 28.3958C41.0806 28.2377 40.9975 28.0933 40.8831 27.9756L39.7305 26.7933C39.5663 26.6316 39.3679 26.509 39.1499 26.4345C38.9318 26.36 38.6998 26.3355 38.4711 26.363L26.4366 27.3797L24.0289 24.7765C23.8578 24.5808 23.3593 24.0625 23.2432 23.9434C20.8749 21.5169 18.6732 20.8355 17.3525 22.1231C16.9369 22.5283 16.3282 23.4456 16.9212 25.0348C17.2707 25.9734 17.9772 26.9917 19.0206 28.0619C19.1354 28.1797 19.6397 28.6898 19.8335 28.8685L22.3753 31.3402L21.0669 43.3586C21.0343 43.5861 21.0533 43.818 21.1224 44.0372C21.1915 44.2564 21.3089 44.4573 21.4661 44.625Z" fill="#6B0000"/>
</g>
<defs>
<clipPath id="clip0_74_80">
<rect width="33.8687" height="33.8687" fill="white" transform="matrix(-0.698081 -0.716019 -0.716019 0.698081 51.8936 31.25)"/>
</clipPath>
</defs>
</svg>
